<?xml version="1.0" encoding="iso-8859-1"?>
<!-- Uploaded to: SVG Repo, www.svgrepo.com, Generator: SVG Repo Mixer Tools -->
<svg fill="#000000" height="800px" width="800px" version="1.1" id="Layer_1" xmlns="http://www.w3.org/2000/svg" xmlns:xlink="http://www.w3.org/1999/xlink" 
	 viewBox="0 0 512 512" xml:space="preserve">
<g>
	<g>
		<g>
			<path d="M460.486,272.363l-42.15-12.509V131.438c0-5.522-4.478-10-10-10H295.072V52.291c0-5.522-4.478-10-10-10h-57.09
				c-5.523,0-10,4.478-10,10v69.147H104.718c-5.523,0-10,4.478-10,10v128.416l-42.15,12.509c-4.244,1.26-7.155,5.16-7.155,9.587
				c0,41.282,25.371,97.668,75.427,167.759H79.526c-5.523,0-10,4.478-10,10c0,5.522,4.477,10,10,10h60.983h36.869h79.148h116.018
				c3.158,0,6.132-1.492,8.019-4.024c57.781-77.543,87.078-139.36,87.078-183.734C467.642,277.523,464.73,273.623,460.486,272.363z
				 M237.982,62.291h37.09V72H261c-5.523,0-10,4.478-10,10c0,5.522,4.477,10,10,10h14.072v29.438h-37.09V62.291z M114.718,141.438
				h113.264h57.09h113.264V253.06l-139.018-40.398c-1.855-0.536-3.829-0.512-5.679,0.028l-138.921,40.371V141.438z M367.51,449.709
				H266.527v-97.693c0-5.522-4.478-10-10-10c-5.523,0-10,4.478-10,10v97.693h-69.148h-31.834
				C96.333,382.96,68.92,327.827,65.728,289.32l190.799-56.625l190.8,56.625C444.135,327.826,416.722,382.959,367.51,449.709z"/>
			<path d="M35.585,449.709H10c-5.523,0-10,4.478-10,10c0,5.522,4.477,10,10,10h25.585c5.523,0,10-4.478,10-10
				C45.585,454.187,41.108,449.709,35.585,449.709z"/>
			<path d="M445.964,449.709h-19.463c-5.522,0-10,4.478-10,10c0,5.522,4.478,10,10,10h19.463c5.522,0,10-4.478,10-10
				C455.964,454.187,451.486,449.709,445.964,449.709z"/>
			<path d="M502,449.709h-12.164c-5.522,0-10,4.478-10,10c0,5.522,4.478,10,10,10H502c5.522,0,10-4.478,10-10
				C512,454.187,507.522,449.709,502,449.709z"/>
			<path d="M246.527,268.976v35.032c0,5.522,4.477,10,10,10c5.522,0,10-4.478,10-10v-35.032c0-5.523-4.477-10-10-10
				C251.004,258.976,246.527,263.454,246.527,268.976z"/>
			<path d="M152.726,165.555c-6.587,0-11.946,5.359-11.946,11.946c0,6.587,5.359,11.946,11.946,11.946
				c6.587,0,11.946-5.359,11.946-11.946C164.672,170.914,159.313,165.555,152.726,165.555z"/>
			<path d="M205.275,165.555c-6.587,0-11.946,5.359-11.946,11.946c0,6.587,5.359,11.946,11.946,11.946
				c6.587,0,11.946-5.359,11.946-11.946C217.221,170.914,211.863,165.555,205.275,165.555z"/>
			<path d="M307.13,189.447c6.587,0,11.946-5.359,11.946-11.946c0-6.587-5.359-11.946-11.946-11.946
				c-6.587,0-11.946,5.359-11.946,11.946C295.184,184.088,300.543,189.447,307.13,189.447z"/>
			<path d="M267.824,177.501c0-6.587-5.358-11.946-11.946-11.946c-6.588,0-11.946,5.359-11.946,11.946
				c0,6.587,5.359,11.946,11.946,11.946C262.465,189.447,267.824,184.088,267.824,177.501z"/>
			<path d="M360.328,189.447c6.587,0,11.946-5.359,11.946-11.946c0-6.587-5.359-11.946-11.946-11.946
				c-6.587,0-11.946,5.359-11.946,11.946C348.382,184.088,353.741,189.447,360.328,189.447z"/>
			<path d="M309.433,299.31l81.743,24.652c0.963,0.29,1.936,0.429,2.892,0.429c4.296,0,8.266-2.791,9.57-7.115
				c1.594-5.289-1.4-10.868-6.687-12.463l-81.743-24.652c-5.289-1.595-10.867,1.399-12.462,6.687
				C301.151,292.136,304.145,297.715,309.433,299.31z"/>
		</g>
	</g>
</g>
</svg>